HIERARCHY
ROOT Hips
{
	OFFSET 0.000000 0.000000 0.000000
	CHANNELS 6 Xposition Yposition Zposition Zrotation Yrotation Xrotation 
	JOINT LHipJoint
	{
		OFFSET 0.000000 0.000000 0.000000
		CHANNELS 3 Zrotation Yrotation Xrotation
		JOINT LeftUpLeg
		{
			OFFSET 1.363060 -1.794630 0.839290
			CHANNELS 3 Zrotation Yrotation Xrotation
			JOINT LeftLeg
			{
				OFFSET 2.448110 -6.726130 0.000000
				CHANNELS 3 Zrotation Yrotation Xrotation
				JOINT LeftFoot
				{
					OFFSET 2.562200 -7.039590 0.000000
					CHANNELS 3 Zrotation Yrotation Xrotation
					JOINT LeftToeBase
					{
						OFFSET 0.157640 -0.433110 2.322550
						CHANNELS 3 Zrotation Yrotation Xrotation
						End Site
						{
							OFFSET 0.000000 0.000000 0.000000
						}
					}
				}
			}
		}
	}
	JOINT RHipJoint
	{
		OFFSET 0.000000 0.000000 0.000000
		CHANNELS 3 Zrotation Yrotation Xrotation
		JOINT RightUpLeg
		{
			OFFSET -1.305520 -1.794630 0.839290
			CHANNELS 3 Zrotation Yrotation Xrotation
			JOINT RightLeg
			{
				OFFSET -2.542530 -6.985550 0.000000
				CHANNELS 3 Zrotation Yrotation Xrotation
				JOINT RightFoot
				{
					OFFSET -2.568260 -7.056230 0.000000
					CHANNELS 3 Zrotation Yrotation Xrotation
					JOINT RightToeBase
					{
						OFFSET -0.164730 -0.452590 2.363150
						CHANNELS 3 Zrotation Yrotation Xrotation
						End Site
						{
							OFFSET 0.000000 0.000000 0.000000
						}
					}
				}
			}
		}
	}
}
MOTION
Frames: 22
Frame Time: 0.008333
7.860876 16.971353 0.969006 -5.132568 -77.090186 3.977139 -11.402538 6.049449 1.260221 6.520877 10.808724 9.421537 -0.175417 2.174721 26.659501 0.873179 -0.450320 16.550495 -0.583800 -0.000000 -86.488900 9.710519 -0.834482 -0.132701 10.432397 -16.398487 -22.132568 1.863903 -0.289837 14.529000 -1.852329 -11.535009 3.921971 -3.186899 0.000000 -55.335600
7.689922 16.977546 0.945070 -5.839376 -77.086580 4.641287 -11.520980 6.009886 1.203716 7.247964 11.467066 8.150748 -0.038371 2.244671 29.064708 1.014998 -0.263979 18.068816 -0.612100 0.000000 -83.705200 9.657210 -0.920635 -0.108188 10.663608 -16.178018 -21.886541 1.830807 -0.353094 15.456893 -1.889038 -11.602557 3.348857 -3.073400 0.000000 -53.335900
7.522876 16.983535 0.921368 -6.514175 -77.070645 5.285862 -11.633126 5.943338 1.136318 7.900304 12.133522 6.783178 0.083480 2.308450 31.549149 1.170337 0.266148 19.305128 -0.485600 -0.000001 -79.816801 9.602961 -0.996974 -0.096455 10.903810 -16.018009 -21.622551 1.806035 -0.404135 16.318076 -1.927627 -11.661565 2.674118 -2.935500 -0.000000 -51.474300
7.360083 16.989279 0.897687 -7.091743 -77.039841 5.834855 -11.731166 5.851623 1.055351 8.442163 12.775940 5.361938 0.187375 2.372257 34.065298 1.330690 1.171525 20.156654 -0.172700 -0.000001 -74.882600 9.553566 -1.062541 -0.101545 11.127720 -15.928309 -21.315276 1.787381 -0.443336 17.085178 -1.966182 -11.708554 1.936648 -2.779300 0.000000 -49.921600
7.201053 16.995110 0.874456 -7.616261 -76.973655 6.343253 -11.818056 5.738940 0.967229 8.886709 13.382502 3.861227 0.274051 2.441150 36.601122 1.489702 2.422220 20.554903 0.315700 -0.000000 -69.167100 9.504498 -1.121364 -0.118724 11.353540 -15.902394 -20.955286 1.776630 -0.466759 17.713938 -2.007027 -11.765267 1.170085 -2.617700 -0.000000 -48.626100
7.045822 17.001131 0.851585 -8.044762 -76.877650 6.761193 -11.889518 5.609206 0.870995 9.211709 13.935242 2.315342 0.345456 2.519080 39.104036 1.642379 3.971401 20.454220 0.944399 -0.000000 -62.969500 9.459553 -1.173580 -0.147792 11.562720 -15.932870 -20.531089 1.771187 -0.475905 18.192255 -2.049563 -11.833915 0.410154 -2.457800 -0.000000 -47.703100
6.893976 17.007672 0.829296 -8.378506 -76.752500 7.094120 -11.945818 5.467024 0.770688 9.413430 14.425280 0.729888 0.404432 2.607026 41.536023 1.786347 5.735151 19.850956 1.646600 0.000000 -56.676300 9.418429 -1.221050 -0.184578 11.754457 -16.006200 -20.044832 1.770446 -0.471048 18.512001 -2.094307 -11.920579 -0.321629 -2.305400 -0.000000 -47.113700
6.745064 17.014969 0.808017 -8.648372 -76.598313 7.380578 -11.989695 5.316414 0.673338 9.496165 14.843989 -0.901355 0.453283 2.703685 43.867564 1.920405 7.608441 18.771293 2.339200 0.000000 -50.646500 9.377983 -1.266509 -0.222710 11.939202 -16.103877 -19.507147 1.774787 -0.451923 18.667005 -2.142527 -12.034328 -1.009649 -2.165600 0.000000 -46.778499
6.598574 17.023295 0.787866 -8.841508 -76.428267 7.612142 -12.020828 5.161089 0.581974 9.453337 15.190959 -2.564328 0.492907 2.805663 46.062169 2.043730 9.487358 17.267993 2.943000 0.000000 -45.140600 9.339530 -1.310698 -0.257485 12.110069 -16.208739 -18.931943 1.783042 -0.420637 18.672069 -2.193498 -12.170154 -1.646901 -2.038900 0.000000 -46.620700
6.454116 17.032840 0.769128 -8.972939 -76.253909 7.809883 -12.040926 5.003842 0.500751 9.287817 15.471179 -4.257425 0.522767 2.908668 48.096302 2.154763 11.269982 15.403822 3.389800 -0.000001 -40.279300 9.301925 -1.355208 -0.282692 12.270203 -16.301064 -18.337072 1.794891 -0.378570 18.541782 -2.247174 -12.326609 -2.230439 -1.925800 0.000000 -46.571500
6.311335 17.043697 0.751586 -8.987833 -76.100486 7.917979 -12.046234 4.848491 0.428297 8.984610 15.698306 -5.951181 0.540804 3.007153 49.935959 2.251648 12.877924 13.254880 3.637900 0.000000 -36.094400 9.271930 -1.398197 -0.296701 12.394146 -16.375462 -17.743283 1.808477 -0.330332 18.322049 -2.299143 -12.473412 -2.776022 -1.817400 0.000000 -46.533300
6.169743 17.055993 0.735718 -8.936281 -75.974342 7.996273 -12.040944 4.695873 0.369133 8.561676 15.882801 -7.658586 0.544447 3.096886 51.574555 2.331303 14.237079 10.897282 3.665500 0.000000 -32.550399 9.244824 -1.442720 -0.292839 12.499959 -16.412983 -17.165878 1.824905 -0.275447 18.012511 -2.349907 -12.615974 -3.273597 -1.718399 -0.000000 -46.467300
6.029215 17.069712 0.721088 -8.753822 -75.901412 7.974379 -12.020342 4.549288 0.318957 8.005834 16.043224 -9.344013 0.530335 3.172921 52.983053 2.390942 15.307391 8.418616 3.484700 -0.000000 -29.589501 9.228997 -1.486005 -0.273075 12.556729 -16.419115 -16.618841 1.842213 -0.218816 17.661235 -2.393294 -12.716550 -3.740075 -1.619200 0.000000 -46.332800
5.889446 17.084881 0.707759 -8.445273 -75.893943 7.859732 -11.985282 4.409768 0.277253 7.326438 16.194957 -11.000654 0.495719 3.231982 54.150483 2.427639 16.060804 5.906675 3.127899 0.000000 -27.155400 9.224497 -1.528900 -0.235907 12.564587 -16.388649 -16.109447 1.860377 -0.161618 17.279699 -2.426906 -12.765135 -4.170618 -1.521000 -0.000001 -46.140000
5.750488 17.101384 0.695431 -7.984486 -75.964623 7.619723 -11.934447 4.278700 0.240488 6.525862 16.351195 -12.608126 0.438792 3.271833 55.062858 2.439329 16.492187 3.451204 2.647600 -0.000001 -25.207200 9.234845 -1.570216 -0.184557 12.510004 -16.328695 -15.637193 1.878514 -0.106062 16.883988 -2.446422 -12.742442 -4.561845 -1.423200 0.000000 -45.921000
5.612315 17.119147 0.683938 -7.355619 -76.121662 7.234925 -11.867997 4.156947 0.205682 5.612750 16.524217 -14.153012 0.359094 3.291567 55.712378 2.424931 16.612488 1.135287 2.104200 -0.000000 -23.697800 9.261233 -1.609641 -0.121601 12.387810 -16.243312 -15.197410 1.895959 -0.053308 16.479723 -2.449143 -12.639659 -4.904955 -1.328300 0.000000 -45.725099
5.475158 17.138012 0.673116 -6.546285 -76.369320 6.685313 -11.786826 4.044728 0.169545 4.597565 16.723117 -15.624207 0.257733 3.291636 56.095785 2.384803 16.448094 -0.970309 1.556600 -0.000000 -22.579200 9.303877 -1.646540 -0.050603 12.195443 -16.137216 -14.781831 1.912003 -0.004115 16.067282 -2.433311 -12.453580 -5.189527 -1.239700 0.000000 -45.608200
5.339024 17.157828 0.663050 -5.563968 -76.709749 5.977369 -11.694166 3.941828 0.129496 3.501092 16.958814 -17.018815 0.136775 3.274048 56.217125 2.320672 16.035421 -2.814226 1.052600 -0.000001 -21.787200 9.359166 -1.681528 0.027464 11.943548 -16.002702 -14.377929 1.925953 0.042282 15.635870 -2.400394 -12.198111 -5.401543 -1.163300 -0.000000 -45.624500
5.204169 17.178348 0.653317 -4.349829 -77.134048 5.042632 -11.588285 3.849096 0.084098 2.322474 17.224996 -18.326354 -0.000365 3.239664 56.077113 2.237167 15.431313 -4.362281 0.626200 0.000000 -21.256400 9.430999 -1.712440 0.105104 11.619479 -15.867994 -13.982464 1.937404 0.084683 15.191203 -2.347434 -11.860422 -5.539699 -1.097800 0.000000 -45.817000
5.070721 17.199329 0.644510 -2.958461 -77.642986 3.937436 -11.476133 3.764444 0.032022 1.097376 17.533916 -19.558620 -0.150802 3.192556 55.693797 2.138760 14.684314 -5.611588 0.290500 0.000000 -20.910500 9.509353 -1.741271 0.186131 11.256349 -15.701918 -13.583306 1.945875 0.125712 14.713603 -2.281753 -11.481369 -5.594633 -1.049600 -0.000001 -46.201600
4.938785 17.220461 0.636669 -1.366029 -78.228198 2.635685 -11.358517 3.687628 -0.026517 -0.163084 17.881141 -20.717290 -0.311492 3.134675 55.079920 2.032059 13.855527 -6.575471 0.045200 -0.000000 -20.703201 9.593133 -1.767325 0.268045 10.860393 -15.512379 -13.182141 1.951420 0.165555 14.207364 -2.205265 -11.068029 -5.575671 -1.015800 0.000000 -46.775100
4.808447 17.241355 0.630046 0.429414 -78.882842 1.134565 -11.237372 3.617749 -0.090772 -1.440856 18.264509 -21.809474 -0.480159 3.068348 54.254733 1.923538 13.000141 -7.288035 -0.121600 0.000000 -20.613800 9.678867 -1.790561 0.350833 10.446984 -15.296777 -12.782733 1.954425 0.204989 13.676916 -2.121889 -10.635718 -5.497650 -0.993500 0.000000 -47.507900
